{
 "cells": [
  {
   "cell_type": "code",
   "execution_count": 1,
   "id": "4823b88e",
   "metadata": {},
   "outputs": [
    {
     "name": "stdout",
     "output_type": "stream",
     "text": [
      "Requirement already satisfied: ffprobe in /Users/spencer/opt/anaconda3/lib/python3.9/site-packages (0.5)\n",
      "Note: you may need to restart the kernel to use updated packages.\n"
     ]
    }
   ],
   "source": [
    "pip install ffprobe"
   ]
  },
  {
   "cell_type": "code",
   "execution_count": 2,
   "id": "3208f158",
   "metadata": {},
   "outputs": [
    {
     "name": "stdout",
     "output_type": "stream",
     "text": [
      "Requirement already satisfied: ffmpeg in /Users/spencer/opt/anaconda3/lib/python3.9/site-packages (1.4)\n",
      "Note: you may need to restart the kernel to use updated packages.\n"
     ]
    }
   ],
   "source": [
    "pip install ffmpeg"
   ]
  },
  {
   "cell_type": "code",
   "execution_count": 3,
   "id": "207a8089",
   "metadata": {},
   "outputs": [
    {
     "name": "stdout",
     "output_type": "stream",
     "text": [
      "/usr/local/bin/ffmpeg\r\n"
     ]
    }
   ],
   "source": [
    "# code copied from the labs in order to add path variable\n",
    "# and run ffmpeg locally\n",
    "exist = !which ffmpeg\n",
    "if not exist:\n",
    "  !brew https://johnvansickle.com/ffmpeg/releases/ffmpeg-release-amd64-static.tar.xz -o ffmpeg.tar.xz \\\n",
    "     && tar -xf ffmpeg.tar.xz && rm ffmpeg.tar.xz\n",
    "  ffmdir = !find . -iname ffmpeg-*-static\n",
    "  path = %env PATH\n",
    "  path = path + ':' + ffmdir[0]\n",
    "  %env PATH $path\n",
    "\n",
    "!which ffmpeg"
   ]
  },
  {
   "cell_type": "code",
   "execution_count": 4,
   "id": "a91fdb78",
   "metadata": {},
   "outputs": [],
   "source": [
    "import ffmpeg\n",
    "import os"
   ]
  },
  {
   "cell_type": "code",
   "execution_count": 5,
   "id": "ab9752d6",
   "metadata": {},
   "outputs": [],
   "source": [
    "# function to extract everything after the equal sign of a string\n",
    "def extract_info(data):\n",
    "    #initialize an empty string\n",
    "    temp = \"\"\n",
    "    # set a check variable to false until the equal sign has\n",
    "    # been reached\n",
    "    check = False\n",
    "    for i in range(len(data)):\n",
    "        # once the equal sign has been reached, append all remaining \n",
    "        # characters to the temp string\n",
    "        if check == True:\n",
    "            temp = temp + data[i]\n",
    "        # once the for loop reaches the equal sign, set check variable \n",
    "        # equal to true\n",
    "        if data[i] == \"=\":\n",
    "            check = True\n",
    "    return temp"
   ]
  },
  {
   "cell_type": "code",
   "execution_count": 6,
   "id": "efeda867",
   "metadata": {},
   "outputs": [],
   "source": [
    "from os import walk"
   ]
  },
  {
   "cell_type": "code",
   "execution_count": 7,
   "id": "339b37c6",
   "metadata": {},
   "outputs": [],
   "source": [
    "file_names = os.listdir(\"Exercise3_Films\")"
   ]
  },
  {
   "cell_type": "code",
   "execution_count": 8,
   "id": "fde50b46",
   "metadata": {},
   "outputs": [],
   "source": [
    "# function to determine which aspects of the digital file format\n",
    "# doesn't meet the required specifications and print to .txt file which \n",
    "# fields are problematic\n",
    "def check_parameters(path):\n",
    "    # save video data in a list\n",
    "    video_data = !ffprobe -v error -select_streams v:0 -show_entries stream=codec_name,r_frame_rate,display_aspect_ratio,width,height,bit_rate -of default=noprint_wrappers=1 $path\n",
    "    # save audio data in a list\n",
    "    audio_data = !ffprobe -v 0 -select_streams a:0 -show_entries stream=codec_name,bit_rate,channel_layout -of default=noprint_wrappers=1 $path\n",
    "    # save string values of the relevant video/audio data\n",
    "    vcodec = extract_info(video_data[0])\n",
    "    width = extract_info(video_data[1])\n",
    "    height = extract_info(video_data[2])\n",
    "    dar = extract_info(video_data[3])\n",
    "    frame_rate = extract_info(video_data[4])\n",
    "    v_bit_rate = extract_info(video_data[5])\n",
    "    acodec = extract_info(audio_data[0])\n",
    "    channel = extract_info(audio_data[1])\n",
    "    a_bit_rate = extract_info(audio_data[2])\n",
    "    \n",
    "    # open .txt file to write to\n",
    "    f = open(\"report-file.txt\", \"a\")\n",
    "    # print which file is currently being reported about\n",
    "    f.write(path + \"\\n\")\n",
    "    \n",
    "    # check if last four digits meet specified file type of .mp4\n",
    "    file_type = \"\"\n",
    "    for i in range(len(path) - 4, len(path)):\n",
    "        file_type += path[i]\n",
    "    \n",
    "    # set check variable to true until some specification isn't met\n",
    "    format_ok = True\n",
    "    if file_type != \".mp4\":\n",
    "        f.write(\"Wrong file type.\\n\")\n",
    "        format_ok = False\n",
    "    # check if video codec is correct\n",
    "    if vcodec != \"h264\":\n",
    "        f.write(\"Video codec is incorrectly formatted.\\n\")\n",
    "        format_ok = False\n",
    "    # check if width is correct\n",
    "    if width != \"640\":\n",
    "        f.write(\"Width is incorrectly formatted.\\n\")\n",
    "        format_ok = False\n",
    "    # check if height is correct\n",
    "    if height != \"360\":\n",
    "        f.write(\"Height is incorrectly formatted.\\n\")\n",
    "        format_ok = False\n",
    "    # check if aspect ratio is correct\n",
    "    if dar != \"16:9\":\n",
    "        f.write(\"Aspect ratio is incorrectly formatted.\\n\")\n",
    "        format_ok = False\n",
    "    # check if frame rate is correct\n",
    "    if frame_rate != \"25/1\":\n",
    "        f.write(\"Frame rate is incorrectly formatted.\\n\")\n",
    "        format_ok = False\n",
    "    # check if video bit rate is within correct range\n",
    "    if int(v_bit_rate) < 2000000 or int(v_bit_rate) > 5000000:\n",
    "        f.write(\"Video bit rate is incorrectly formatted.\\n\")\n",
    "        format_ok = False\n",
    "    # check if audio codec is correct\n",
    "    if acodec != \"aac\":\n",
    "        f.write(\"Audio codec is incorrectly formatted.\\n\")\n",
    "        format_ok = False\n",
    "    # check if audio channels is correct\n",
    "    if channel != \"stereo\":\n",
    "        f.write(\"Audio channels is incorrectly formatted.\\n\")\n",
    "        format_ok = False\n",
    "    # check if audio bit rate is correct\n",
    "    if int(a_bit_rate) > 256000:\n",
    "        f.write(\"Audio bit rate is incorrectly formatted.\\n\")\n",
    "        format_ok = False\n",
    "    # if file format is incorrect, update to correct file specifications\n",
    "    if format_ok == False:\n",
    "        temp = path.split(\".\")[0]\n",
    "        temp = temp + \"_formatOK.mp4\"\n",
    "        !ffmpeg -hide_banner -y -i $path -vcodec h264 -vf scale=640:360,setdar=16/9 -r 25 -b:v 3.5M -b:a 128k -ac 2 -acodec aac $temp\n",
    "    # if file is formatted correctly, don't do anything\n",
    "    else:\n",
    "        f.write(\"File is correctly formatted.\\n\")\n",
    "    f.write(\"-------------------------------------------\\n\")\n",
    "    f.close()"
   ]
  },
  {
   "cell_type": "code",
   "execution_count": 9,
   "id": "28561657",
   "metadata": {},
   "outputs": [
    {
     "name": "stdout",
     "output_type": "stream",
     "text": [
      "9285191\n",
      "Input #0, mov,mp4,m4a,3gp,3g2,mj2, from 'Exercise3_Films/Last_man_on_earth_1964.mov':\n",
      "  Metadata:\n",
      "    major_brand     : qt  \n",
      "    minor_version   : 537199360\n",
      "    compatible_brands: qt  \n",
      "    creation_time   : 2021-08-02T18:38:19.000000Z\n",
      "  Duration: 00:00:20.02, start: 0.000000, bitrate: 11240 kb/s\n",
      "  Stream #0:0[0x1](eng): Video: prores (LT) (apcs / 0x73637061), yuv422p10le(tv, smpte170m/smpte170m/bt709, progressive), 640x360, 9285 kb/s, SAR 1:1 DAR 16:9, 23.98 fps, 23.98 tbr, 24k tbn (default)\n",
      "    Metadata:\n",
      "      creation_time   : 2021-08-02T18:38:19.000000Z\n",
      "      handler_name    : Apple Video Media Handler\n",
      "      vendor_id       : appl\n",
      "      encoder         : Apple ProRes 422 LT\n",
      "      timecode        : 00:51:43:11\n",
      "  Stream #0:1[0x2](eng): Audio: pcm_s16le (sowt / 0x74776F73), 48000 Hz, stereo, s16, 1536 kb/s (default)\n",
      "    Metadata:\n",
      "      creation_time   : 2021-08-02T18:38:19.000000Z\n",
      "      handler_name    : Apple Sound Media Handler\n",
      "      vendor_id       :     \n",
      "      timecode        : 00:51:43:11\n",
      "  Stream #0:2[0x3](eng): Data: none (tmcd / 0x64636D74), 0 kb/s (default)\n",
      "    Metadata:\n",
      "      creation_time   : 2021-08-02T18:38:19.000000Z\n",
      "      handler_name    : Time Code Media Handler\n",
      "      timecode        : 00:51:43:11\n",
      "Stream mapping:\n",
      "  Stream #0:0 -> #0:0 (prores (native) -> h264 (libx264))\n",
      "  Stream #0:1 -> #0:1 (pcm_s16le (native) -> aac (native))\n",
      "Press [q] to stop, [?] for help\n",
      "\u001b[1;36m[libx264 @ 0x7fb44d70bf00] \u001b[0musing SAR=1/1\n",
      "\u001b[1;36m[libx264 @ 0x7fb44d70bf00] \u001b[0musing cpu capabilities: MMX2 SSE2Fast SSSE3 SSE4.2\n",
      "\u001b[1;36m[libx264 @ 0x7fb44d70bf00] \u001b[0mprofile High 4:2:2, level 3.0, 4:2:2, 10-bit\n",
      "\u001b[1;36m[libx264 @ 0x7fb44d70bf00] \u001b[0m264 - core 164 r3094 bfc87b7 - H.264/MPEG-4 AVC codec - Copyleft 2003-2022 - http://www.videolan.org/x264.html - options: cabac=1 ref=3 deblock=1:0:0 analyse=0x3:0x113 me=hex subme=7 psy=1 psy_rd=1.00:0.00 mixed_ref=1 me_range=16 chroma_me=1 trellis=1 8x8dct=1 cqm=0 deadzone=21,11 fast_pskip=1 chroma_qp_offset=-2 threads=11 lookahead_threads=1 sliced_threads=0 nr=0 decimate=1 interlaced=0 bluray_compat=0 constrained_intra=0 bframes=3 b_pyramid=2 b_adapt=1 b_bias=0 direct=1 weightb=1 open_gop=0 weightp=2 keyint=250 keyint_min=25 scenecut=40 intra_refresh=0 rc_lookahead=40 rc=abr mbtree=1 bitrate=3500 ratetol=1.0 qcomp=0.60 qpmin=0 qpmax=81 qpstep=4 ip_ratio=1.40 aq=1:1.00\n",
      "\u001b[1;35m[mp4 @ 0x7fb44d70afc0] \u001b[0m\u001b[1;31mApplication provided duration: -9223372036854775808 / timestamp: -9223372036854775808 is out of range for mov/mp4 format\n",
      "\u001b[0m\u001b[1;35m[mp4 @ 0x7fb44d70afc0] \u001b[0m\u001b[0;33mpts has no value\n",
      "\u001b[0mOutput #0, mp4, to 'Exercise3_Films/Last_man_on_earth_1964_formatOK.mp4':\n",
      "  Metadata:\n",
      "    major_brand     : qt  \n",
      "    minor_version   : 537199360\n",
      "    compatible_brands: qt  \n",
      "    encoder         : Lavf59.18.101\n",
      "  Stream #0:0(eng): Video: h264 (avc1 / 0x31637661), yuv422p10le(tv, smpte170m/smpte170m/bt709, progressive), 640x360 [SAR 1:1 DAR 16:9], q=2-31, 3500 kb/s, 25 fps, 12800 tbn (default)\n",
      "    Metadata:\n",
      "      creation_time   : 2021-08-02T18:38:19.000000Z\n",
      "      handler_name    : Apple Video Media Handler\n",
      "      vendor_id       : appl\n",
      "      timecode        : 00:51:43:11\n",
      "      encoder         : Lavc59.23.100 libx264\n",
      "    Side data:\n",
      "      cpb: bitrate max/min/avg: 0/0/3500000 buffer size: 0 vbv_delay: N/A\n",
      "  Stream #0:1(eng): Audio: aac (LC) (mp4a / 0x6134706D), 48000 Hz, stereo, fltp, 128 kb/s (default)\n",
      "    Metadata:\n",
      "      creation_time   : 2021-08-02T18:38:19.000000Z\n",
      "      handler_name    : Apple Sound Media Handler\n",
      "      vendor_id       :     \n",
      "      timecode        : 00:51:43:11\n",
      "      encoder         : Lavc59.23.100 aac\n",
      "frame=  500 fps=162 q=-1.0 Lsize=    9261kB time=00:00:20.03 bitrate=3787.3kbits/s dup=20 drop=0 speed=6.48x    \n",
      "video:8931kB audio:314kB subtitle:0kB other streams:0kB global headers:0kB muxing overhead: 0.181317%\n",
      "\u001b[1;36m[libx264 @ 0x7fb44d70bf00] \u001b[0mframe I:6     Avg QP:13.59  size: 45477\n",
      "\u001b[1;36m[libx264 @ 0x7fb44d70bf00] \u001b[0mframe P:129   Avg QP:16.05  size: 33929\n",
      "\u001b[1;36m[libx264 @ 0x7fb44d70bf00] \u001b[0mframe B:365   Avg QP:19.22  size: 12315\n",
      "\u001b[1;36m[libx264 @ 0x7fb44d70bf00] \u001b[0mconsecutive B-frames:  1.6%  1.6%  4.8% 92.0%\n",
      "\u001b[1;36m[libx264 @ 0x7fb44d70bf00] \u001b[0mmb I  I16..4: 17.6% 69.2% 13.3%\n",
      "\u001b[1;36m[libx264 @ 0x7fb44d70bf00] \u001b[0mmb P  I16..4:  0.9% 35.5%  2.5%  P16..4: 20.3% 23.0% 16.0%  0.0%  0.0%    skip: 1.8%\n",
      "\u001b[1;36m[libx264 @ 0x7fb44d70bf00] \u001b[0mmb B  I16..4:  0.1%  8.4%  0.4%  B16..8: 28.3% 23.3% 12.2%  direct:10.3%  skip:17.1%  L0:36.8% L1:29.0% BI:34.2%\n",
      "\u001b[1;36m[libx264 @ 0x7fb44d70bf00] \u001b[0mfinal ratefactor: 6.52\n",
      "\u001b[1;36m[libx264 @ 0x7fb44d70bf00] \u001b[0m8x8 transform intra:91.0% inter:70.1%\n",
      "\u001b[1;36m[libx264 @ 0x7fb44d70bf00] \u001b[0mcoded y,uvDC,uvAC intra: 85.0% 0.0% 0.0% inter: 55.4% 0.0% 0.0%\n",
      "\u001b[1;36m[libx264 @ 0x7fb44d70bf00] \u001b[0mi16 v,h,dc,p: 59% 24% 13%  3%\n",
      "\u001b[1;36m[libx264 @ 0x7fb44d70bf00] \u001b[0mi8 v,h,dc,ddl,ddr,vr,hd,vl,hu: 24% 17% 36%  3%  3%  4%  3%  4%  5%\n",
      "\u001b[1;36m[libx264 @ 0x7fb44d70bf00] \u001b[0mi4 v,h,dc,ddl,ddr,vr,hd,vl,hu: 36% 17% 11%  5%  6%  7%  5%  6%  7%\n",
      "\u001b[1;36m[libx264 @ 0x7fb44d70bf00] \u001b[0mi8c dc,h,v,p: 100%  0%  0%  0%\n",
      "\u001b[1;36m[libx264 @ 0x7fb44d70bf00] \u001b[0mWeighted P-Frames: Y:4.7% UV:0.0%\n",
      "\u001b[1;36m[libx264 @ 0x7fb44d70bf00] \u001b[0mref P L0: 73.0% 18.7%  8.0%  0.4%\n",
      "\u001b[1;36m[libx264 @ 0x7fb44d70bf00] \u001b[0mref B L0: 92.6%  6.0%  1.4%\n",
      "\u001b[1;36m[libx264 @ 0x7fb44d70bf00] \u001b[0mref B L1: 97.6%  2.4%\n",
      "\u001b[1;36m[libx264 @ 0x7fb44d70bf00] \u001b[0mkb/s:3657.81\n",
      "\u001b[1;36m[aac @ 0x7fb44d70d200] \u001b[0mQavg: 669.278\n",
      "8038857\n",
      "Input #0, mov,mp4,m4a,3gp,3g2,mj2, from 'Exercise3_Films/Voyage_to_the_Planet_of_Prehistoric_Women.mp4':\n",
      "  Metadata:\n",
      "    major_brand     : mp42\n",
      "    minor_version   : 0\n",
      "    compatible_brands: mp42mp41\n",
      "    creation_time   : 2021-08-02T19:26:10.000000Z\n",
      "  Duration: 00:00:20.09, start: 0.000000, bitrate: 8337 kb/s\n",
      "  Stream #0:0[0x1](eng): Video: hevc (Main) (hvc1 / 0x31637668), yuv420p(tv, bt709), 640x360 [SAR 1:1 DAR 16:9], 8038 kb/s, 29.97 fps, 29.97 tbr, 30k tbn (default)\n",
      "    Metadata:\n",
      "      creation_time   : 2021-08-02T19:26:10.000000Z\n",
      "      handler_name    : ?Mainconcept Video Media Handler\n",
      "      vendor_id       : [0][0][0][0]\n",
      "      encoder         : HEVC Coding\n",
      "  Stream #0:1[0x2](eng): Audio: mp3 (mp4a / 0x6134706D), 48000 Hz, stereo, fltp, 320 kb/s (default)\n",
      "    Metadata:\n",
      "      creation_time   : 2021-08-02T19:26:10.000000Z\n",
      "      handler_name    : #Mainconcept MP4 Sound Media Handler\n",
      "      vendor_id       : [0][0][0][0]\n",
      "Stream mapping:\n",
      "  Stream #0:0 -> #0:0 (hevc (native) -> h264 (libx264))\n",
      "  Stream #0:1 -> #0:1 (mp3 (mp3float) -> aac (native))\n",
      "Press [q] to stop, [?] for help\n",
      "\u001b[1;36m[libx264 @ 0x7fa027f08040] \u001b[0musing SAR=1/1\n",
      "\u001b[1;36m[libx264 @ 0x7fa027f08040] \u001b[0musing cpu capabilities: MMX2 SSE2Fast SSSE3 SSE4.2\n",
      "\u001b[1;36m[libx264 @ 0x7fa027f08040] \u001b[0mprofile High, level 3.0, 4:2:0, 8-bit\n",
      "\u001b[1;36m[libx264 @ 0x7fa027f08040] \u001b[0m264 - core 164 r3094 bfc87b7 - H.264/MPEG-4 AVC codec - Copyleft 2003-2022 - http://www.videolan.org/x264.html - options: cabac=1 ref=3 deblock=1:0:0 analyse=0x3:0x113 me=hex subme=7 psy=1 psy_rd=1.00:0.00 mixed_ref=1 me_range=16 chroma_me=1 trellis=1 8x8dct=1 cqm=0 deadzone=21,11 fast_pskip=1 chroma_qp_offset=-2 threads=11 lookahead_threads=1 sliced_threads=0 nr=0 decimate=1 interlaced=0 bluray_compat=0 constrained_intra=0 bframes=3 b_pyramid=2 b_adapt=1 b_bias=0 direct=1 weightb=1 open_gop=0 weightp=2 keyint=250 keyint_min=25 scenecut=40 intra_refresh=0 rc_lookahead=40 rc=abr mbtree=1 bitrate=3500 ratetol=1.0 qcomp=0.60 qpmin=0 qpmax=69 qpstep=4 ip_ratio=1.40 aq=1:1.00\n",
      "Output #0, mp4, to 'Exercise3_Films/Voyage_to_the_Planet_of_Prehistoric_Women_formatOK.mp4':\n",
      "  Metadata:\n",
      "    major_brand     : mp42\n",
      "    minor_version   : 0\n",
      "    compatible_brands: mp42mp41\n",
      "    encoder         : Lavf59.18.101\n",
      "  Stream #0:0(eng): Video: h264 (avc1 / 0x31637661), yuv420p(tv, bt709, progressive), 640x360 [SAR 1:1 DAR 16:9], q=2-31, 3500 kb/s, 25 fps, 12800 tbn (default)\n",
      "    Metadata:\n",
      "      creation_time   : 2021-08-02T19:26:10.000000Z\n",
      "      handler_name    : ?Mainconcept Video Media Handler\n",
      "      vendor_id       : [0][0][0][0]\n",
      "      encoder         : Lavc59.23.100 libx264\n",
      "    Side data:\n",
      "      cpb: bitrate max/min/avg: 0/0/3500000 buffer size: 0 vbv_delay: N/A\n",
      "  Stream #0:1(eng): Audio: aac (LC) (mp4a / 0x6134706D), 48000 Hz, stereo, fltp, 128 kb/s (default)\n",
      "    Metadata:\n",
      "      creation_time   : 2021-08-02T19:26:10.000000Z\n",
      "      handler_name    : #Mainconcept MP4 Sound Media Handler\n",
      "      vendor_id       : [0][0][0][0]\n",
      "      encoder         : Lavc59.23.100 aac\n"
     ]
    },
    {
     "name": "stdout",
     "output_type": "stream",
     "text": [
      "frame=  502 fps=140 q=-1.0 Lsize=    8567kB time=00:00:20.05 bitrate=3499.6kbits/s dup=0 drop=98 speed=5.58x    \n",
      "video:8236kB audio:314kB subtitle:0kB other streams:0kB global headers:0kB muxing overhead: 0.191515%\n",
      "\u001b[1;36m[libx264 @ 0x7fa027f08040] \u001b[0mframe I:5     Avg QP: 4.35  size: 54210\n",
      "\u001b[1;36m[libx264 @ 0x7fa027f08040] \u001b[0mframe P:129   Avg QP: 6.87  size: 37670\n",
      "\u001b[1;36m[libx264 @ 0x7fa027f08040] \u001b[0mframe B:368   Avg QP:10.40  size:  8975\n",
      "\u001b[1;36m[libx264 @ 0x7fa027f08040] \u001b[0mconsecutive B-frames:  1.6%  0.4%  4.8% 93.2%\n",
      "\u001b[1;36m[libx264 @ 0x7fa027f08040] \u001b[0mmb I  I16..4: 19.2% 33.7% 47.1%\n",
      "\u001b[1;36m[libx264 @ 0x7fa027f08040] \u001b[0mmb P  I16..4:  4.0% 18.8% 11.3%  P16..4: 17.3% 20.8% 17.6%  0.0%  0.0%    skip:10.1%\n",
      "\u001b[1;36m[libx264 @ 0x7fa027f08040] \u001b[0mmb B  I16..4:  0.1%  1.0%  0.6%  B16..8: 37.9% 19.1% 11.6%  direct: 7.7%  skip:21.9%  L0:46.1% L1:38.9% BI:14.9%\n",
      "\u001b[1;36m[libx264 @ 0x7fa027f08040] \u001b[0mfinal ratefactor: 7.81\n",
      "\u001b[1;36m[libx264 @ 0x7fa027f08040] \u001b[0m8x8 transform intra:53.3% inter:42.0%\n",
      "\u001b[1;36m[libx264 @ 0x7fa027f08040] \u001b[0mcoded y,uvDC,uvAC intra: 87.3% 95.2% 95.0% inter: 38.5% 59.2% 37.6%\n",
      "\u001b[1;36m[libx264 @ 0x7fa027f08040] \u001b[0mi16 v,h,dc,p: 58% 13% 13% 16%\n",
      "\u001b[1;36m[libx264 @ 0x7fa027f08040] \u001b[0mi8 v,h,dc,ddl,ddr,vr,hd,vl,hu: 27% 18% 16%  5%  6%  7%  6%  8%  8%\n",
      "\u001b[1;36m[libx264 @ 0x7fa027f08040] \u001b[0mi4 v,h,dc,ddl,ddr,vr,hd,vl,hu: 28% 17% 12%  6%  9%  7%  6%  8%  6%\n",
      "\u001b[1;36m[libx264 @ 0x7fa027f08040] \u001b[0mi8c dc,h,v,p: 49% 15% 23% 13%\n",
      "\u001b[1;36m[libx264 @ 0x7fa027f08040] \u001b[0mWeighted P-Frames: Y:14.0% UV:9.3%\n",
      "\u001b[1;36m[libx264 @ 0x7fa027f08040] \u001b[0mref P L0: 68.1% 14.3% 12.8%  4.3%  0.6%\n",
      "\u001b[1;36m[libx264 @ 0x7fa027f08040] \u001b[0mref B L0: 94.8%  4.5%  0.7%\n",
      "\u001b[1;36m[libx264 @ 0x7fa027f08040] \u001b[0mref B L1: 98.2%  1.8%\n",
      "\u001b[1;36m[libx264 @ 0x7fa027f08040] \u001b[0mkb/s:3359.87\n",
      "\u001b[1;36m[aac @ 0x7fa027f09600] \u001b[0mQavg: 570.988\n",
      "87438878\n",
      "\u001b[0;33mGuessed Channel Layout for Input Stream #0.1 : stereo\n",
      "\u001b[0mInput #0, avi, from 'Exercise3_Films/The_Gun_and_the_Pulpit.avi':\n",
      "  Duration: 00:00:20.00, start: 0.000000, bitrate: 88809 kb/s\n",
      "  Stream #0:0: Video: rawvideo (IYUV / 0x56555949), yuv420p, 720x404, 87438 kb/s, 25 fps, 25 tbr, 25 tbn\n",
      "  Stream #0:1: Audio: pcm_s16le ([1][0][0][0] / 0x0001), 48000 Hz, stereo, s16, 1536 kb/s\n",
      "Stream mapping:\n",
      "  Stream #0:0 -> #0:0 (rawvideo (native) -> h264 (libx264))\n",
      "  Stream #0:1 -> #0:1 (pcm_s16le (native) -> aac (native))\n",
      "Press [q] to stop, [?] for help\n",
      "\u001b[1;36m[libx264 @ 0x7fa21a0073c0] \u001b[0musing SAR=1/1\n",
      "\u001b[1;36m[libx264 @ 0x7fa21a0073c0] \u001b[0musing cpu capabilities: MMX2 SSE2Fast SSSE3 SSE4.2\n",
      "\u001b[1;36m[libx264 @ 0x7fa21a0073c0] \u001b[0mprofile High, level 3.0, 4:2:0, 8-bit\n",
      "\u001b[1;36m[libx264 @ 0x7fa21a0073c0] \u001b[0m264 - core 164 r3094 bfc87b7 - H.264/MPEG-4 AVC codec - Copyleft 2003-2022 - http://www.videolan.org/x264.html - options: cabac=1 ref=3 deblock=1:0:0 analyse=0x3:0x113 me=hex subme=7 psy=1 psy_rd=1.00:0.00 mixed_ref=1 me_range=16 chroma_me=1 trellis=1 8x8dct=1 cqm=0 deadzone=21,11 fast_pskip=1 chroma_qp_offset=-2 threads=11 lookahead_threads=1 sliced_threads=0 nr=0 decimate=1 interlaced=0 bluray_compat=0 constrained_intra=0 bframes=3 b_pyramid=2 b_adapt=1 b_bias=0 direct=1 weightb=1 open_gop=0 weightp=2 keyint=250 keyint_min=25 scenecut=40 intra_refresh=0 rc_lookahead=40 rc=abr mbtree=1 bitrate=3500 ratetol=1.0 qcomp=0.60 qpmin=0 qpmax=69 qpstep=4 ip_ratio=1.40 aq=1:1.00\n",
      "Output #0, mp4, to 'Exercise3_Films/The_Gun_and_the_Pulpit_formatOK.mp4':\n",
      "  Metadata:\n",
      "    encoder         : Lavf59.18.101\n",
      "  Stream #0:0: Video: h264 (avc1 / 0x31637661), yuv420p(tv, progressive), 640x360 [SAR 1:1 DAR 16:9], q=2-31, 3500 kb/s, 25 fps, 12800 tbn\n",
      "    Metadata:\n",
      "      encoder         : Lavc59.23.100 libx264\n",
      "    Side data:\n",
      "      cpb: bitrate max/min/avg: 0/0/3500000 buffer size: 0 vbv_delay: N/A\n",
      "  Stream #0:1: Audio: aac (LC) (mp4a / 0x6134706D), 48000 Hz, stereo, fltp, 128 kb/s\n",
      "    Metadata:\n",
      "      encoder         : Lavc59.23.100 aac\n",
      "frame=  500 fps=137 q=-1.0 Lsize=    8662kB time=00:00:20.01 bitrate=3546.0kbits/s speed=5.49x    \n",
      "video:8331kB audio:315kB subtitle:0kB other streams:0kB global headers:0kB muxing overhead: 0.185209%\n",
      "\u001b[1;36m[libx264 @ 0x7fa21a0073c0] \u001b[0mframe I:17    Avg QP: 8.56  size: 39725\n",
      "\u001b[1;36m[libx264 @ 0x7fa21a0073c0] \u001b[0mframe P:156   Avg QP:10.93  size: 27494\n",
      "\u001b[1;36m[libx264 @ 0x7fa21a0073c0] \u001b[0mframe B:327   Avg QP:13.21  size: 10905\n",
      "\u001b[1;36m[libx264 @ 0x7fa21a0073c0] \u001b[0mconsecutive B-frames: 10.0%  5.6%  8.4% 76.0%\n",
      "\u001b[1;36m[libx264 @ 0x7fa21a0073c0] \u001b[0mmb I  I16..4:  9.9% 40.5% 49.7%\n",
      "\u001b[1;36m[libx264 @ 0x7fa21a0073c0] \u001b[0mmb P  I16..4:  3.1% 31.6% 18.9%  P16..4: 13.1% 18.6% 12.6%  0.0%  0.0%    skip: 2.0%\n",
      "\u001b[1;36m[libx264 @ 0x7fa21a0073c0] \u001b[0mmb B  I16..4:  0.5%  6.7%  5.4%  B16..8: 29.7% 24.7% 11.3%  direct: 6.5%  skip:15.2%  L0:48.2% L1:37.2% BI:14.6%\n",
      "\u001b[1;36m[libx264 @ 0x7fa21a0073c0] \u001b[0mfinal ratefactor: 8.82\n",
      "\u001b[1;36m[libx264 @ 0x7fa21a0073c0] \u001b[0m8x8 transform intra:55.0% inter:44.3%\n",
      "\u001b[1;36m[libx264 @ 0x7fa21a0073c0] \u001b[0mcoded y,uvDC,uvAC intra: 90.8% 93.7% 86.1% inter: 48.3% 40.5% 20.5%\n",
      "\u001b[1;36m[libx264 @ 0x7fa21a0073c0] \u001b[0mi16 v,h,dc,p: 64% 12%  8% 16%\n",
      "\u001b[1;36m[libx264 @ 0x7fa21a0073c0] \u001b[0mi8 v,h,dc,ddl,ddr,vr,hd,vl,hu: 39% 22%  8%  3%  4%  6%  5%  6%  6%\n",
      "\u001b[1;36m[libx264 @ 0x7fa21a0073c0] \u001b[0mi4 v,h,dc,ddl,ddr,vr,hd,vl,hu: 37% 23%  7%  4%  6%  6%  7%  5%  5%\n",
      "\u001b[1;36m[libx264 @ 0x7fa21a0073c0] \u001b[0mi8c dc,h,v,p: 50% 15% 28%  8%\n",
      "\u001b[1;36m[libx264 @ 0x7fa21a0073c0] \u001b[0mWeighted P-Frames: Y:4.5% UV:1.9%\n",
      "\u001b[1;36m[libx264 @ 0x7fa21a0073c0] \u001b[0mref P L0: 74.8% 10.8% 11.1%  3.2%  0.0%\n",
      "\u001b[1;36m[libx264 @ 0x7fa21a0073c0] \u001b[0mref B L0: 95.2%  4.2%  0.7%\n",
      "\u001b[1;36m[libx264 @ 0x7fa21a0073c0] \u001b[0mref B L1: 98.5%  1.5%\n",
      "\u001b[1;36m[libx264 @ 0x7fa21a0073c0] \u001b[0mkb/s:3412.11\n",
      "\u001b[1;36m[aac @ 0x7fa21a008800] \u001b[0mQavg: 625.569\n",
      "2989377\n",
      "Input #0, mov,mp4,m4a,3gp,3g2,mj2, from 'Exercise3_Films/Cosmos_War_of_the_Planets.mp4':\n",
      "  Metadata:\n",
      "    major_brand     : mp42\n",
      "    minor_version   : 0\n",
      "    compatible_brands: mp42mp41\n",
      "    creation_time   : 2021-08-02T19:15:48.000000Z\n",
      "  Duration: 00:00:20.05, start: 0.000000, bitrate: 3309 kb/s\n",
      "  Stream #0:0[0x1](eng): Video: h264 (Main) (avc1 / 0x31637661), yuv420p(progressive), 628x354 [SAR 1:1 DAR 314:177], 2989 kb/s, 29.97 fps, 29.97 tbr, 30k tbn (default)\n",
      "    Metadata:\n",
      "      creation_time   : 2021-08-02T19:15:48.000000Z\n",
      "      handler_name    : ?Mainconcept Video Media Handler\n",
      "      vendor_id       : [0][0][0][0]\n",
      "      encoder         : AVC Coding\n",
      "  Stream #0:1[0x2](eng): Audio: aac (LC) (mp4a / 0x6134706D), 48000 Hz, stereo, fltp, 317 kb/s (default)\n",
      "    Metadata:\n",
      "      creation_time   : 2021-08-02T19:15:48.000000Z\n",
      "      handler_name    : #Mainconcept MP4 Sound Media Handler\n",
      "      vendor_id       : [0][0][0][0]\n",
      "Stream mapping:\n",
      "  Stream #0:0 -> #0:0 (h264 (native) -> h264 (libx264))\n",
      "  Stream #0:1 -> #0:1 (aac (native) -> aac (native))\n",
      "Press [q] to stop, [?] for help\n",
      "\u001b[1;36m[libx264 @ 0x7ff5fd809240] \u001b[0musing SAR=1/1\n",
      "\u001b[1;36m[libx264 @ 0x7ff5fd809240] \u001b[0musing cpu capabilities: MMX2 SSE2Fast SSSE3 SSE4.2\n",
      "\u001b[1;36m[libx264 @ 0x7ff5fd809240] \u001b[0mprofile High, level 3.0, 4:2:0, 8-bit\n",
      "\u001b[1;36m[libx264 @ 0x7ff5fd809240] \u001b[0m264 - core 164 r3094 bfc87b7 - H.264/MPEG-4 AVC codec - Copyleft 2003-2022 - http://www.videolan.org/x264.html - options: cabac=1 ref=3 deblock=1:0:0 analyse=0x3:0x113 me=hex subme=7 psy=1 psy_rd=1.00:0.00 mixed_ref=1 me_range=16 chroma_me=1 trellis=1 8x8dct=1 cqm=0 deadzone=21,11 fast_pskip=1 chroma_qp_offset=-2 threads=11 lookahead_threads=1 sliced_threads=0 nr=0 decimate=1 interlaced=0 bluray_compat=0 constrained_intra=0 bframes=3 b_pyramid=2 b_adapt=1 b_bias=0 direct=1 weightb=1 open_gop=0 weightp=2 keyint=250 keyint_min=25 scenecut=40 intra_refresh=0 rc_lookahead=40 rc=abr mbtree=1 bitrate=3500 ratetol=1.0 qcomp=0.60 qpmin=0 qpmax=69 qpstep=4 ip_ratio=1.40 aq=1:1.00\n",
      "Output #0, mp4, to 'Exercise3_Films/Cosmos_War_of_the_Planets_formatOK.mp4':\n",
      "  Metadata:\n",
      "    major_brand     : mp42\n",
      "    minor_version   : 0\n",
      "    compatible_brands: mp42mp41\n",
      "    encoder         : Lavf59.18.101\n",
      "  Stream #0:0(eng): Video: h264 (avc1 / 0x31637661), yuv420p(tv, progressive), 640x360 [SAR 1:1 DAR 16:9], q=2-31, 3500 kb/s, 25 fps, 12800 tbn (default)\n",
      "    Metadata:\n",
      "      creation_time   : 2021-08-02T19:15:48.000000Z\n",
      "      handler_name    : ?Mainconcept Video Media Handler\n",
      "      vendor_id       : [0][0][0][0]\n",
      "      encoder         : Lavc59.23.100 libx264\n",
      "    Side data:\n",
      "      cpb: bitrate max/min/avg: 0/0/3500000 buffer size: 0 vbv_delay: N/A\n",
      "  Stream #0:1(eng): Audio: aac (LC) (mp4a / 0x6134706D), 48000 Hz, stereo, fltp, 128 kb/s (default)\n",
      "    Metadata:\n",
      "      creation_time   : 2021-08-02T19:15:48.000000Z\n",
      "      handler_name    : #Mainconcept MP4 Sound Media Handler\n",
      "      vendor_id       : [0][0][0][0]\n",
      "      encoder         : Lavc59.23.100 aac\n"
     ]
    },
    {
     "name": "stdout",
     "output_type": "stream",
     "text": [
      "frame=  502 fps=127 q=-1.0 Lsize=    8841kB time=00:00:20.03 bitrate=3615.4kbits/s dup=0 drop=98 speed=5.08x    \n",
      "video:8507kB audio:317kB subtitle:0kB other streams:0kB global headers:0kB muxing overhead: 0.185621%\n",
      "\u001b[1;36m[libx264 @ 0x7ff5fd809240] \u001b[0mframe I:3     Avg QP: 8.17  size: 46004\n",
      "\u001b[1;36m[libx264 @ 0x7ff5fd809240] \u001b[0mframe P:127   Avg QP: 9.10  size: 35909\n",
      "\u001b[1;36m[libx264 @ 0x7ff5fd809240] \u001b[0mframe B:372   Avg QP:12.07  size: 10786\n",
      "\u001b[1;36m[libx264 @ 0x7ff5fd809240] \u001b[0mconsecutive B-frames:  1.2%  0.0%  0.0% 98.8%\n",
      "\u001b[1;36m[libx264 @ 0x7ff5fd809240] \u001b[0mmb I  I16..4: 11.7% 59.0% 29.3%\n",
      "\u001b[1;36m[libx264 @ 0x7ff5fd809240] \u001b[0mmb P  I16..4:  4.6% 29.4%  9.8%  P16..4: 13.3% 24.4% 17.7%  0.0%  0.0%    skip: 0.7%\n",
      "\u001b[1;36m[libx264 @ 0x7ff5fd809240] \u001b[0mmb B  I16..4:  0.9%  4.0%  1.2%  B16..8: 30.9% 28.3% 13.9%  direct:11.8%  skip: 9.0%  L0:42.1% L1:37.7% BI:20.1%\n",
      "\u001b[1;36m[libx264 @ 0x7ff5fd809240] \u001b[0mfinal ratefactor: 9.14\n",
      "\u001b[1;36m[libx264 @ 0x7ff5fd809240] \u001b[0m8x8 transform intra:66.4% inter:42.4%\n",
      "\u001b[1;36m[libx264 @ 0x7ff5fd809240] \u001b[0mcoded y,uvDC,uvAC intra: 90.6% 98.0% 97.5% inter: 54.7% 65.6% 37.7%\n",
      "\u001b[1;36m[libx264 @ 0x7ff5fd809240] \u001b[0mi16 v,h,dc,p: 27% 17% 25% 31%\n",
      "\u001b[1;36m[libx264 @ 0x7ff5fd809240] \u001b[0mi8 v,h,dc,ddl,ddr,vr,hd,vl,hu: 26% 26% 22%  3%  4%  5%  5%  4%  6%\n",
      "\u001b[1;36m[libx264 @ 0x7ff5fd809240] \u001b[0mi4 v,h,dc,ddl,ddr,vr,hd,vl,hu: 34% 22% 16%  4%  6%  5%  5%  4%  4%\n",
      "\u001b[1;36m[libx264 @ 0x7ff5fd809240] \u001b[0mi8c dc,h,v,p: 50% 23% 18%  9%\n",
      "\u001b[1;36m[libx264 @ 0x7ff5fd809240] \u001b[0mWeighted P-Frames: Y:12.6% UV:3.1%\n",
      "\u001b[1;36m[libx264 @ 0x7ff5fd809240] \u001b[0mref P L0: 59.9% 15.1% 18.0%  6.3%  0.7%\n",
      "\u001b[1;36m[libx264 @ 0x7ff5fd809240] \u001b[0mref B L0: 94.1%  5.0%  1.0%\n",
      "\u001b[1;36m[libx264 @ 0x7ff5fd809240] \u001b[0mref B L1: 98.3%  1.7%\n",
      "\u001b[1;36m[libx264 @ 0x7ff5fd809240] \u001b[0mkb/s:3470.39\n",
      "\u001b[1;36m[aac @ 0x7ff5fd80a800] \u001b[0mQavg: 1125.714\n",
      "7537730\n",
      "Input #0, mov,mp4,m4a,3gp,3g2,mj2, from 'Exercise3_Films/The_Hill_Gang_Rides_Again.mp4':\n",
      "  Metadata:\n",
      "    major_brand     : mp42\n",
      "    minor_version   : 0\n",
      "    compatible_brands: mp42mp41\n",
      "    creation_time   : 2021-08-02T18:46:51.000000Z\n",
      "  Duration: 00:00:20.04, start: 0.000000, bitrate: 7784 kb/s\n",
      "  Stream #0:0[0x1](eng): Video: h264 (Main) (avc1 / 0x31637661), yuv420p(progressive), 640x360 [SAR 1:1 DAR 16:9], 7537 kb/s, 25 fps, 25 tbr, 25k tbn (default)\n",
      "    Metadata:\n",
      "      creation_time   : 2021-08-02T18:46:51.000000Z\n",
      "      handler_name    : ?Mainconcept Video Media Handler\n",
      "      vendor_id       : [0][0][0][0]\n",
      "      encoder         : AVC Coding\n",
      "  Stream #0:1[0x2](eng): Audio: aac (LC) (mp4a / 0x6134706D), 44100 Hz, stereo, fltp, 253 kb/s (default)\n",
      "    Metadata:\n",
      "      creation_time   : 2021-08-02T18:46:51.000000Z\n",
      "      handler_name    : #Mainconcept MP4 Sound Media Handler\n",
      "      vendor_id       : [0][0][0][0]\n",
      "Stream mapping:\n",
      "  Stream #0:0 -> #0:0 (h264 (native) -> h264 (libx264))\n",
      "  Stream #0:1 -> #0:1 (aac (native) -> aac (native))\n",
      "Press [q] to stop, [?] for help\n",
      "\u001b[1;36m[libx264 @ 0x7ff653708940] \u001b[0musing SAR=1/1\n",
      "\u001b[1;36m[libx264 @ 0x7ff653708940] \u001b[0musing cpu capabilities: MMX2 SSE2Fast SSSE3 SSE4.2\n",
      "\u001b[1;36m[libx264 @ 0x7ff653708940] \u001b[0mprofile High, level 3.0, 4:2:0, 8-bit\n",
      "\u001b[1;36m[libx264 @ 0x7ff653708940] \u001b[0m264 - core 164 r3094 bfc87b7 - H.264/MPEG-4 AVC codec - Copyleft 2003-2022 - http://www.videolan.org/x264.html - options: cabac=1 ref=3 deblock=1:0:0 analyse=0x3:0x113 me=hex subme=7 psy=1 psy_rd=1.00:0.00 mixed_ref=1 me_range=16 chroma_me=1 trellis=1 8x8dct=1 cqm=0 deadzone=21,11 fast_pskip=1 chroma_qp_offset=-2 threads=11 lookahead_threads=1 sliced_threads=0 nr=0 decimate=1 interlaced=0 bluray_compat=0 constrained_intra=0 bframes=3 b_pyramid=2 b_adapt=1 b_bias=0 direct=1 weightb=1 open_gop=0 weightp=2 keyint=250 keyint_min=25 scenecut=40 intra_refresh=0 rc_lookahead=40 rc=abr mbtree=1 bitrate=3500 ratetol=1.0 qcomp=0.60 qpmin=0 qpmax=69 qpstep=4 ip_ratio=1.40 aq=1:1.00\n",
      "Output #0, mp4, to 'Exercise3_Films/The_Hill_Gang_Rides_Again_formatOK.mp4':\n",
      "  Metadata:\n",
      "    major_brand     : mp42\n",
      "    minor_version   : 0\n",
      "    compatible_brands: mp42mp41\n",
      "    encoder         : Lavf59.18.101\n",
      "  Stream #0:0(eng): Video: h264 (avc1 / 0x31637661), yuv420p(progressive), 640x360 [SAR 1:1 DAR 16:9], q=2-31, 3500 kb/s, 25 fps, 12800 tbn (default)\n",
      "    Metadata:\n",
      "      creation_time   : 2021-08-02T18:46:51.000000Z\n",
      "      handler_name    : ?Mainconcept Video Media Handler\n",
      "      vendor_id       : [0][0][0][0]\n",
      "      encoder         : Lavc59.23.100 libx264\n",
      "    Side data:\n",
      "      cpb: bitrate max/min/avg: 0/0/3500000 buffer size: 0 vbv_delay: N/A\n",
      "  Stream #0:1(eng): Audio: aac (LC) (mp4a / 0x6134706D), 44100 Hz, stereo, fltp, 128 kb/s (default)\n",
      "    Metadata:\n",
      "      creation_time   : 2021-08-02T18:46:51.000000Z\n",
      "      handler_name    : #Mainconcept MP4 Sound Media Handler\n",
      "      vendor_id       : [0][0][0][0]\n",
      "      encoder         : Lavc59.23.100 aac\n",
      "frame=  500 fps=147 q=-1.0 Lsize=    8837kB time=00:00:20.01 bitrate=3616.7kbits/s speed=5.87x    \n",
      "video:8504kB audio:315kB subtitle:0kB other streams:0kB global headers:0kB muxing overhead: 0.201504%\n",
      "\u001b[1;36m[libx264 @ 0x7ff653708940] \u001b[0mframe I:4     Avg QP: 5.19  size: 46906\n",
      "\u001b[1;36m[libx264 @ 0x7ff653708940] \u001b[0mframe P:130   Avg QP: 5.63  size: 41570\n",
      "\u001b[1;36m[libx264 @ 0x7ff653708940] \u001b[0mframe B:366   Avg QP: 9.12  size:  8512\n",
      "\u001b[1;36m[libx264 @ 0x7ff653708940] \u001b[0mconsecutive B-frames:  2.0%  0.8%  1.2% 96.0%\n",
      "\u001b[1;36m[libx264 @ 0x7ff653708940] \u001b[0mmb I  I16..4: 16.8% 31.6% 51.5%\n",
      "\u001b[1;36m[libx264 @ 0x7ff653708940] \u001b[0mmb P  I16..4:  3.3% 17.2% 17.2%  P16..4: 17.4% 23.5% 19.8%  0.0%  0.0%    skip: 1.5%\n",
      "\u001b[1;36m[libx264 @ 0x7ff653708940] \u001b[0mmb B  I16..4:  0.2%  0.8%  0.6%  B16..8: 36.4% 20.8% 13.6%  direct: 9.0%  skip:18.7%  L0:44.5% L1:40.5% BI:15.0%\n",
      "\u001b[1;36m[libx264 @ 0x7ff653708940] \u001b[0mfinal ratefactor: 6.43\n",
      "\u001b[1;36m[libx264 @ 0x7ff653708940] \u001b[0m8x8 transform intra:45.3% inter:30.2%\n",
      "\u001b[1;36m[libx264 @ 0x7ff653708940] \u001b[0mcoded y,uvDC,uvAC intra: 96.3% 89.5% 87.9% inter: 47.5% 46.2% 28.1%\n",
      "\u001b[1;36m[libx264 @ 0x7ff653708940] \u001b[0mi16 v,h,dc,p: 34% 14% 25% 27%\n",
      "\u001b[1;36m[libx264 @ 0x7ff653708940] \u001b[0mi8 v,h,dc,ddl,ddr,vr,hd,vl,hu: 39% 18% 11%  3%  5%  6%  5%  6%  7%\n",
      "\u001b[1;36m[libx264 @ 0x7ff653708940] \u001b[0mi4 v,h,dc,ddl,ddr,vr,hd,vl,hu: 33% 19% 11%  5%  7%  7%  6%  6%  5%\n",
      "\u001b[1;36m[libx264 @ 0x7ff653708940] \u001b[0mi8c dc,h,v,p: 54% 13% 25%  8%\n",
      "\u001b[1;36m[libx264 @ 0x7ff653708940] \u001b[0mWeighted P-Frames: Y:12.3% UV:9.2%\n",
      "\u001b[1;36m[libx264 @ 0x7ff653708940] \u001b[0mref P L0: 75.9%  9.8% 10.9%  3.2%  0.2%\n",
      "\u001b[1;36m[libx264 @ 0x7ff653708940] \u001b[0mref B L0: 96.1%  3.4%  0.5%\n",
      "\u001b[1;36m[libx264 @ 0x7ff653708940] \u001b[0mref B L1: 98.6%  1.4%\n",
      "\u001b[1;36m[libx264 @ 0x7ff653708940] \u001b[0mkb/s:3482.89\n",
      "\u001b[1;36m[aac @ 0x7ff653709e40] \u001b[0mQavg: 14298.272\n"
     ]
    }
   ],
   "source": [
    "# go through list of file paths and check for required specifications\n",
    "for i in range(1, len(file_names)):\n",
    "    temp = \"Exercise3_Films/\"\n",
    "    temp = temp + file_names[i]\n",
    "    check_parameters(temp)"
   ]
  },
  {
   "cell_type": "code",
   "execution_count": null,
   "id": "599ff82e",
   "metadata": {},
   "outputs": [],
   "source": []
  }
 ],
 "metadata": {
  "kernelspec": {
   "display_name": "Python 3 (ipykernel)",
   "language": "python",
   "name": "python3"
  },
  "language_info": {
   "codemirror_mode": {
    "name": "ipython",
    "version": 3
   },
   "file_extension": ".py",
   "mimetype": "text/x-python",
   "name": "python",
   "nbconvert_exporter": "python",
   "pygments_lexer": "ipython3",
   "version": "3.9.7"
  }
 },
 "nbformat": 4,
 "nbformat_minor": 5
}
